<?xml version="1.0" encoding="UTF-8"?>
<svg xmlns="http://www.w3.org/2000/svg" viewBox="0 0 669 573">
  <defs>
    <style>
      .cls-1 {
        fill: #ccc;
      }
    </style>
  </defs>
  <g id="Layer_3" data-name="Layer 3">
    <path class="cls-1" d="M23,499l-7-10s-3-4,0-7c2-2,47-33,47-33,0,0,4-3,7,1s8,11,8,11l-55,38Z"/>
    <path class="cls-1" d="M273,389l-107-230-127,59s-3,1-4-1c-1.61-3.22-19-40-19-40,0,0-2-3,2-5S317,33,317,33c0,0,3-1,4,1,1.61,3.22,19,40,19,40,0,0,1,3-1,4s-127,60-127,60l106,229-45,22Z"/>
    <path class="cls-1" d="M429,154L647,1s4-2,6,1,14,20,14,20c0,0,3,4,0,6s-205,144-205,144l-33-18Z"/>
    <path class="cls-1" d="M493,191l138-96s3-2,5,1c1.75,2.63,11.97,16.81,14.46,20.25.45.62.73,1.34.78,2.1.07,1.05-.1,2.51-1.24,3.65-3,3-138,97-138,97l-19-28Z"/>
    <path class="cls-1" d="M541,240l73-51s3-3,6,1,14,21,14,21c0,0,1,3-1,5s-72,51-72,51l-20-27Z"/>
    <circle class="cls-1" cx="642.5" cy="446.5" r="8.5"/>
    <polygon class="cls-1" points="638.41 453.95 564 411 566 392 647.71 439.79 638.41 453.95"/>
  </g>
  <g id="Layer_2" data-name="Layer 2">
    <path class="cls-1" d="M194.54,496.97c-19.61-43-77.37-58.75-129.02-35.2-47.6,21.71-73.39,69.25-61.77,110.23h184.49c13.99-23.63,17.24-51.04,6.3-75.03Z"/>
    <path class="cls-1" d="M601,387.5c0-140-113.03-253.5-252.46-253.5s-252.46,113.5-252.46,253.5c0,72.72,30.5,138.27,79.35,184.5h346.22c48.85-46.23,79.35-111.78,79.35-184.5Z"/>
  </g>
</svg>